<mxfile host="65bd71144e">
    <diagram id="4g6jTl6MtuZaUHWPY0bz" name="Page-1">
        <mxGraphModel dx="2862" dy="2674" grid="1" gridSize="10" guides="1" tooltips="1" connect="1" arrows="1" fold="1" page="1" pageScale="1" pageWidth="850" pageHeight="1100" math="0" shadow="0">
            <root>
                <mxCell id="0"/>
                <mxCell id="1" parent="0"/>
                <mxCell id="128" value="tvis/start_rs_camera.launch" style="rounded=0;whiteSpace=wrap;html=1;fillColor=#60a917;strokeColor=#2D7600;fontSize=14;fontColor=#000000;verticalAlign=middle;" vertex="1" parent="1">
                    <mxGeometry x="1780" y="10" width="190" height="60" as="geometry"/>
                </mxCell>
                <mxCell id="123" value="" style="endArrow=none;dashed=1;html=1;dashPattern=1 3;strokeWidth=2;rounded=1;sketch=0;fontColor=#000000;" edge="1" parent="1">
                    <mxGeometry width="50" height="50" relative="1" as="geometry">
                        <mxPoint x="420" y="650" as="sourcePoint"/>
                        <mxPoint x="420" y="-160" as="targetPoint"/>
                    </mxGeometry>
                </mxCell>
                <mxCell id="44" value="Microcontroller" style="rounded=0;whiteSpace=wrap;html=1;fillColor=#f0a30a;strokeColor=#BD7000;fontSize=14;fontColor=#000000;verticalAlign=top;" vertex="1" parent="1">
                    <mxGeometry x="420" y="880" width="280" height="140" as="geometry"/>
                </mxCell>
                <mxCell id="46" value="" style="shape=image;verticalLabelPosition=bottom;labelBackgroundColor=#ffffff;verticalAlign=top;aspect=fixed;imageAspect=0;image=https://www.terraelectronica.ru/images/icatalog/big/n/nucleo-f767zi.png;" vertex="1" parent="1">
                    <mxGeometry x="430" y="915" width="116.32" height="85" as="geometry"/>
                </mxCell>
                <mxCell id="47" value="ROS Socket&lt;br&gt;192.168.10.2" style="rounded=0;whiteSpace=wrap;html=1;fillColor=#d5e8d4;strokeColor=#82b366;fontSize=14;fontColor=#000000;labelBorderColor=none;" vertex="1" parent="1">
                    <mxGeometry x="560" y="915" width="130" height="85" as="geometry"/>
                </mxCell>
                <mxCell id="48" style="rounded=0;orthogonalLoop=1;jettySize=auto;html=1;fontSize=14;fontColor=#000000;strokeWidth=4;startArrow=none;startFill=1;endArrow=classic;endFill=1;sketch=0;edgeStyle=orthogonalEdgeStyle;" edge="1" parent="1" source="44" target="60">
                    <mxGeometry relative="1" as="geometry">
                        <mxPoint x="640.0344827586207" y="810" as="sourcePoint"/>
                        <mxPoint x="560" y="770" as="targetPoint"/>
                        <Array as="points">
                            <mxPoint x="520" y="820"/>
                            <mxPoint x="520" y="820"/>
                        </Array>
                    </mxGeometry>
                </mxCell>
                <mxCell id="61" value="/state" style="edgeLabel;html=1;align=center;verticalAlign=middle;resizable=0;points=[];" vertex="1" connectable="0" parent="48">
                    <mxGeometry x="0.4331" relative="1" as="geometry">
                        <mxPoint as="offset"/>
                    </mxGeometry>
                </mxCell>
                <mxCell id="50" value="Network" style="rounded=1;whiteSpace=wrap;html=1;fontSize=14;fillColor=#dae8fc;strokeColor=#6c8ebf;fontColor=#000000;dashed=1;" vertex="1" parent="1">
                    <mxGeometry x="580" y="760" width="120" height="40" as="geometry"/>
                </mxCell>
                <mxCell id="52" style="rounded=1;orthogonalLoop=1;jettySize=auto;html=1;fontSize=14;fontColor=#000000;strokeWidth=4;startArrow=none;startFill=1;sketch=0;edgeStyle=orthogonalEdgeStyle;entryX=0.25;entryY=0;entryDx=0;entryDy=0;" edge="1" parent="1" source="60" target="44">
                    <mxGeometry relative="1" as="geometry">
                        <mxPoint x="490.0344827586207" y="840" as="sourcePoint"/>
                        <mxPoint x="470" y="880" as="targetPoint"/>
                        <Array as="points">
                            <mxPoint x="490" y="760"/>
                            <mxPoint x="490" y="760"/>
                        </Array>
                    </mxGeometry>
                </mxCell>
                <mxCell id="62" value="/state_cmd" style="edgeLabel;html=1;align=center;verticalAlign=middle;resizable=0;points=[];" vertex="1" connectable="0" parent="52">
                    <mxGeometry x="-0.3944" y="2" relative="1" as="geometry">
                        <mxPoint x="-2" y="16" as="offset"/>
                    </mxGeometry>
                </mxCell>
                <mxCell id="60" value="tsoft/robot_layer" style="rounded=0;whiteSpace=wrap;html=1;fillColor=#60a917;strokeColor=#2D7600;fontSize=14;fontColor=#000000;" vertex="1" parent="1">
                    <mxGeometry x="450" y="670" width="140" height="30" as="geometry"/>
                </mxCell>
                <mxCell id="63" value="tsoft ~ tigra_software&lt;br&gt;tvis ~ tigra_vision" style="rounded=0;whiteSpace=wrap;html=1;fontSize=14;fillColor=#dae8fc;strokeColor=#6c8ebf;fontColor=#000000;dashed=1;shadow=0;sketch=0;glass=0;align=left;spacingLeft=10;" vertex="1" parent="1">
                    <mxGeometry x="40" y="580" width="200" height="110" as="geometry"/>
                </mxCell>
                <mxCell id="66" style="rounded=1;orthogonalLoop=1;jettySize=auto;html=1;fontSize=14;fontColor=#000000;sketch=0;edgeStyle=orthogonalEdgeStyle;" edge="1" parent="1" source="88" target="60">
                    <mxGeometry relative="1" as="geometry">
                        <mxPoint x="485" y="500" as="sourcePoint"/>
                        <mxPoint x="800" y="565" as="targetPoint"/>
                    </mxGeometry>
                </mxCell>
                <mxCell id="82" style="rounded=1;orthogonalLoop=1;jettySize=auto;html=1;fontSize=14;fontColor=#000000;sketch=0;edgeStyle=orthogonalEdgeStyle;" edge="1" parent="1" source="60" target="91">
                    <mxGeometry relative="1" as="geometry">
                        <mxPoint x="460" y="450" as="sourcePoint"/>
                        <mxPoint x="520" y="500" as="targetPoint"/>
                    </mxGeometry>
                </mxCell>
                <mxCell id="86" value="ROS Socket on Computer&lt;br&gt;&lt;br&gt;Static Address: 192.168.10.1" style="rounded=0;whiteSpace=wrap;html=1;fillColor=#fff2cc;strokeColor=#d6b656;fontSize=14;labelBorderColor=none;fontColor=#000000;" vertex="1" parent="1">
                    <mxGeometry x="600" y="637.5" width="130" height="95" as="geometry"/>
                </mxCell>
                <mxCell id="87" value="" style="endArrow=none;html=1;strokeWidth=1;dashed=1;" edge="1" parent="1">
                    <mxGeometry width="50" height="50" relative="1" as="geometry">
                        <mxPoint x="110" y="800" as="sourcePoint"/>
                        <mxPoint x="990" y="800" as="targetPoint"/>
                    </mxGeometry>
                </mxCell>
                <mxCell id="88" value="/cmd_vel" style="rounded=1;whiteSpace=wrap;html=1;fontSize=14;fillColor=#cdeb8b;strokeColor=#36393d;fontColor=#000000;" vertex="1" parent="1">
                    <mxGeometry x="390" y="480" width="70" height="30" as="geometry"/>
                </mxCell>
                <mxCell id="89" value="topic" style="rounded=1;whiteSpace=wrap;html=1;fontSize=14;fillColor=#cdeb8b;strokeColor=#36393d;fontColor=#000000;" vertex="1" parent="1">
                    <mxGeometry x="40" y="560" width="80" height="20" as="geometry"/>
                </mxCell>
                <mxCell id="90" value="TF" style="rounded=1;whiteSpace=wrap;html=1;fontSize=14;fillColor=#e1d5e7;strokeColor=#9673a6;fontColor=#000000;" vertex="1" parent="1">
                    <mxGeometry x="40" y="540" width="80" height="20" as="geometry"/>
                </mxCell>
                <mxCell id="91" value="/odom" style="rounded=1;whiteSpace=wrap;html=1;fontSize=14;fillColor=#e1d5e7;strokeColor=#9673a6;fontColor=#000000;" vertex="1" parent="1">
                    <mxGeometry x="560" y="520" width="80" height="30" as="geometry"/>
                </mxCell>
                <mxCell id="92" value="/wheel_odom" style="rounded=1;whiteSpace=wrap;html=1;fontSize=14;fillColor=#cdeb8b;strokeColor=#36393d;fontColor=#000000;" vertex="1" parent="1">
                    <mxGeometry x="480" y="480" width="110" height="30" as="geometry"/>
                </mxCell>
                <mxCell id="93" style="rounded=1;orthogonalLoop=1;jettySize=auto;html=1;fontSize=14;fontColor=#000000;sketch=0;edgeStyle=orthogonalEdgeStyle;" edge="1" parent="1" source="60" target="92">
                    <mxGeometry relative="1" as="geometry">
                        <mxPoint x="530" y="680" as="sourcePoint"/>
                        <mxPoint x="570" y="590" as="targetPoint"/>
                    </mxGeometry>
                </mxCell>
                <mxCell id="110" value="node" style="rounded=0;whiteSpace=wrap;html=1;fillColor=#60a917;strokeColor=#2D7600;fontSize=14;fontColor=#000000;" vertex="1" parent="1">
                    <mxGeometry x="40" y="520" width="80" height="20" as="geometry"/>
                </mxCell>
                <mxCell id="111" value="&lt;i&gt;Local Planner&lt;br&gt;&lt;/i&gt;teb_local_planner" style="rounded=0;whiteSpace=wrap;html=1;fillColor=#60a917;strokeColor=#2D7600;fontSize=14;fontColor=#000000;" vertex="1" parent="1">
                    <mxGeometry x="750" y="230" width="140" height="40" as="geometry"/>
                </mxCell>
                <mxCell id="113" value="" style="shape=image;verticalLabelPosition=bottom;labelBackgroundColor=#ffffff;verticalAlign=top;aspect=fixed;imageAspect=0;image=https://upload.wikimedia.org/wikipedia/commons/thumb/5/50/User_icon-cp.svg/1200px-User_icon-cp.svg.png;" vertex="1" parent="1">
                    <mxGeometry x="397" y="-90" width="56.4" height="70" as="geometry"/>
                </mxCell>
                <mxCell id="115" value="" style="shape=image;verticalLabelPosition=bottom;labelBackgroundColor=#ffffff;verticalAlign=top;aspect=fixed;imageAspect=0;image=https://raw.githubusercontent.com/ros-visualization/rviz/kinetic-devel/images/splash.png;" vertex="1" parent="1">
                    <mxGeometry x="530" y="30" width="123.08" height="80" as="geometry"/>
                </mxCell>
                <mxCell id="116" value="tsoft/joy_ctrl" style="rounded=0;whiteSpace=wrap;html=1;fillColor=#60a917;strokeColor=#2D7600;fontSize=14;fontColor=#000000;verticalAlign=top;" vertex="1" parent="1">
                    <mxGeometry x="210" y="40" width="175" height="80" as="geometry"/>
                </mxCell>
                <mxCell id="114" value="" style="shape=image;verticalLabelPosition=bottom;labelBackgroundColor=#ffffff;verticalAlign=top;aspect=fixed;imageAspect=0;image=https://icon-library.com/images/joystick-icon-png/joystick-icon-png-0.jpg;" vertex="1" parent="1">
                    <mxGeometry x="279.53" y="70" width="55.47" height="40" as="geometry"/>
                </mxCell>
                <mxCell id="117" style="rounded=1;orthogonalLoop=1;jettySize=auto;html=1;fontSize=14;fontColor=#000000;entryX=0.25;entryY=0;entryDx=0;entryDy=0;sketch=0;edgeStyle=orthogonalEdgeStyle;" edge="1" parent="1" source="116" target="88">
                    <mxGeometry relative="1" as="geometry">
                        <mxPoint x="360" y="202.5" as="sourcePoint"/>
                        <mxPoint x="385" y="377.5" as="targetPoint"/>
                    </mxGeometry>
                </mxCell>
                <mxCell id="120" style="rounded=1;orthogonalLoop=1;jettySize=auto;html=1;fontSize=14;fontColor=#000000;sketch=0;edgeStyle=orthogonalEdgeStyle;" edge="1" parent="1" source="111" target="144">
                    <mxGeometry relative="1" as="geometry">
                        <mxPoint x="367.48275862068976" y="130" as="sourcePoint"/>
                        <mxPoint x="417.5" y="490" as="targetPoint"/>
                    </mxGeometry>
                </mxCell>
                <mxCell id="121" style="rounded=1;orthogonalLoop=1;jettySize=auto;html=1;fontSize=14;fontColor=#000000;sketch=0;edgeStyle=orthogonalEdgeStyle;" edge="1" parent="1" source="113" target="116">
                    <mxGeometry relative="1" as="geometry">
                        <mxPoint x="395" y="90" as="sourcePoint"/>
                        <mxPoint x="417.5" y="490" as="targetPoint"/>
                    </mxGeometry>
                </mxCell>
                <mxCell id="122" style="rounded=1;orthogonalLoop=1;jettySize=auto;html=1;fontSize=14;fontColor=#000000;sketch=0;edgeStyle=orthogonalEdgeStyle;" edge="1" parent="1" source="113" target="115">
                    <mxGeometry relative="1" as="geometry">
                        <mxPoint x="450" y="-55" as="sourcePoint"/>
                        <mxPoint x="307.5" y="50" as="targetPoint"/>
                    </mxGeometry>
                </mxCell>
                <mxCell id="124" value="Manual Control" style="rounded=1;whiteSpace=wrap;html=1;fontSize=14;fillColor=#dae8fc;strokeColor=#6c8ebf;fontColor=#000000;dashed=1;" vertex="1" parent="1">
                    <mxGeometry x="237.5" y="160" width="120" height="40" as="geometry"/>
                </mxCell>
                <mxCell id="125" value="Programm Control" style="rounded=1;whiteSpace=wrap;html=1;fontSize=14;fillColor=#dae8fc;strokeColor=#6c8ebf;fontColor=#000000;dashed=1;" vertex="1" parent="1">
                    <mxGeometry x="520" y="160" width="120" height="40" as="geometry"/>
                </mxCell>
                <mxCell id="127" value="" style="shape=image;verticalLabelPosition=bottom;labelBackgroundColor=#ffffff;verticalAlign=top;aspect=fixed;imageAspect=0;image=https://st.bmshop.net/jone12120/product/m/367e458e-60b8e6db2f95d.jpg;flipH=0;" vertex="1" parent="1">
                    <mxGeometry x="1940" y="-10" width="40" height="40" as="geometry"/>
                </mxCell>
                <mxCell id="129" value="tvis/start_elp_camera.launch" style="rounded=0;whiteSpace=wrap;html=1;fillColor=#60a917;strokeColor=#2D7600;fontSize=14;fontColor=#000000;verticalAlign=middle;" vertex="1" parent="1">
                    <mxGeometry x="1780" y="-120" width="200" height="70" as="geometry"/>
                </mxCell>
                <mxCell id="131" value="/elp_camera/points2" style="rounded=1;whiteSpace=wrap;html=1;fontSize=14;fillColor=#cdeb8b;strokeColor=#36393d;fontColor=#000000;" vertex="1" parent="1">
                    <mxGeometry x="1560" y="-100" width="150" height="30" as="geometry"/>
                </mxCell>
                <mxCell id="134" style="rounded=1;orthogonalLoop=1;jettySize=auto;html=1;fontSize=14;fontColor=#000000;sketch=0;edgeStyle=orthogonalEdgeStyle;" edge="1" parent="1" source="129" target="131">
                    <mxGeometry relative="1" as="geometry">
                        <mxPoint x="1120" y="50" as="sourcePoint"/>
                        <mxPoint x="1740" y="-100" as="targetPoint"/>
                    </mxGeometry>
                </mxCell>
                <mxCell id="135" value="/rs_camera/depth/color/points" style="rounded=1;whiteSpace=wrap;html=1;fontSize=14;fillColor=#cdeb8b;strokeColor=#36393d;fontColor=#000000;" vertex="1" parent="1">
                    <mxGeometry x="1520" y="7.5" width="190" height="30" as="geometry"/>
                </mxCell>
                <mxCell id="136" style="rounded=1;orthogonalLoop=1;jettySize=auto;html=1;fontSize=14;fontColor=#000000;sketch=0;edgeStyle=orthogonalEdgeStyle;" edge="1" parent="1" source="128" target="135">
                    <mxGeometry relative="1" as="geometry">
                        <mxPoint x="1790" y="-75" as="sourcePoint"/>
                        <mxPoint x="1720" y="-75" as="targetPoint"/>
                        <Array as="points">
                            <mxPoint x="1770" y="23"/>
                            <mxPoint x="1770" y="23"/>
                        </Array>
                    </mxGeometry>
                </mxCell>
                <mxCell id="137" value="/rs_camera/imu/filtered" style="rounded=1;whiteSpace=wrap;html=1;fontSize=14;fillColor=#cdeb8b;strokeColor=#36393d;fontColor=#000000;" vertex="1" parent="1">
                    <mxGeometry x="1520" y="50" width="190" height="30" as="geometry"/>
                </mxCell>
                <mxCell id="138" style="rounded=1;orthogonalLoop=1;jettySize=auto;html=1;fontSize=14;fontColor=#000000;sketch=0;edgeStyle=orthogonalEdgeStyle;" edge="1" parent="1" source="128" target="137">
                    <mxGeometry relative="1" as="geometry">
                        <mxPoint x="1790" y="33.000000000000455" as="sourcePoint"/>
                        <mxPoint x="1720" y="33.000000000000455" as="targetPoint"/>
                        <Array as="points">
                            <mxPoint x="1740" y="65"/>
                            <mxPoint x="1740" y="65"/>
                        </Array>
                    </mxGeometry>
                </mxCell>
                <mxCell id="139" value="ekf_localization" style="rounded=0;whiteSpace=wrap;html=1;fillColor=#60a917;strokeColor=#2D7600;fontSize=14;fontColor=#000000;" vertex="1" parent="1">
                    <mxGeometry x="1380" y="240" width="140" height="30" as="geometry"/>
                </mxCell>
                <mxCell id="140" style="rounded=1;orthogonalLoop=1;jettySize=auto;html=1;fontSize=14;fontColor=#000000;sketch=0;edgeStyle=orthogonalEdgeStyle;" edge="1" parent="1" source="137" target="139">
                    <mxGeometry relative="1" as="geometry">
                        <mxPoint x="1420" y="595" as="sourcePoint"/>
                        <mxPoint x="1350" y="595" as="targetPoint"/>
                        <Array as="points">
                            <mxPoint x="1615" y="255"/>
                        </Array>
                    </mxGeometry>
                </mxCell>
                <mxCell id="141" style="rounded=1;orthogonalLoop=1;jettySize=auto;html=1;fontSize=14;fontColor=#000000;sketch=0;edgeStyle=orthogonalEdgeStyle;" edge="1" parent="1" source="92" target="139">
                    <mxGeometry relative="1" as="geometry">
                        <mxPoint x="1160" y="595" as="sourcePoint"/>
                        <mxPoint x="1000" y="280" as="targetPoint"/>
                        <Array as="points">
                            <mxPoint x="1175" y="495"/>
                        </Array>
                    </mxGeometry>
                </mxCell>
                <mxCell id="142" value="" style="shape=image;verticalLabelPosition=bottom;labelBackgroundColor=#ffffff;verticalAlign=top;aspect=fixed;imageAspect=0;image=http://sc04.alicdn.com/kf/H5f2f300c464a4552b375d37627a756c34.jpg;" vertex="1" parent="1">
                    <mxGeometry x="1940" y="-140" width="50" height="50" as="geometry"/>
                </mxCell>
                <mxCell id="143" value="tsoft/steering_filter" style="rounded=0;whiteSpace=wrap;html=1;fillColor=#60a917;strokeColor=#2D7600;fontSize=14;fontColor=#000000;" vertex="1" parent="1">
                    <mxGeometry x="429.9999999999999" y="400" width="140" height="30" as="geometry"/>
                </mxCell>
                <mxCell id="144" value="/cmd_vel_raw" style="rounded=1;whiteSpace=wrap;html=1;fontSize=14;fillColor=#cdeb8b;strokeColor=#36393d;fontColor=#000000;" vertex="1" parent="1">
                    <mxGeometry x="450" y="320" width="100" height="30" as="geometry"/>
                </mxCell>
                <mxCell id="145" style="rounded=1;orthogonalLoop=1;jettySize=auto;html=1;fontSize=14;fontColor=#000000;sketch=0;edgeStyle=orthogonalEdgeStyle;" edge="1" parent="1" source="143" target="88">
                    <mxGeometry relative="1" as="geometry">
                        <mxPoint x="650" y="265.02857142857147" as="sourcePoint"/>
                        <mxPoint x="452.5" y="490" as="targetPoint"/>
                        <Array as="points">
                            <mxPoint x="440" y="450"/>
                            <mxPoint x="440" y="450"/>
                        </Array>
                    </mxGeometry>
                </mxCell>
                <mxCell id="146" style="rounded=1;orthogonalLoop=1;jettySize=auto;html=1;fontSize=14;fontColor=#000000;sketch=0;edgeStyle=orthogonalEdgeStyle;" edge="1" parent="1" source="144" target="143">
                    <mxGeometry relative="1" as="geometry">
                        <mxPoint x="500" y="435.02857142857147" as="sourcePoint"/>
                        <mxPoint x="440" y="490" as="targetPoint"/>
                    </mxGeometry>
                </mxCell>
                <mxCell id="147" value="rgbd_odometry" style="rounded=0;whiteSpace=wrap;html=1;fillColor=#60a917;strokeColor=#2D7600;fontSize=14;fontColor=#000000;" vertex="1" parent="1">
                    <mxGeometry x="1380" y="100" width="140" height="30" as="geometry"/>
                </mxCell>
                <mxCell id="148" style="rounded=1;orthogonalLoop=1;jettySize=auto;html=1;fontSize=14;fontColor=#000000;sketch=0;edgeStyle=orthogonalEdgeStyle;" edge="1" parent="1" source="135" target="147">
                    <mxGeometry relative="1" as="geometry">
                        <mxPoint x="1160" y="595" as="sourcePoint"/>
                        <mxPoint x="1000" y="280" as="targetPoint"/>
                        <Array as="points">
                            <mxPoint x="1450" y="23"/>
                        </Array>
                    </mxGeometry>
                </mxCell>
                <mxCell id="149" value="/tigra/vo" style="rounded=1;whiteSpace=wrap;html=1;fontSize=14;fillColor=#cdeb8b;strokeColor=#36393d;fontColor=#000000;" vertex="1" parent="1">
                    <mxGeometry x="1375" y="170" width="150" height="30" as="geometry"/>
                </mxCell>
                <mxCell id="150" style="rounded=1;orthogonalLoop=1;jettySize=auto;html=1;fontSize=14;fontColor=#000000;sketch=0;edgeStyle=orthogonalEdgeStyle;" edge="1" parent="1" source="147" target="149">
                    <mxGeometry relative="1" as="geometry">
                        <mxPoint x="1255" y="537.5" as="sourcePoint"/>
                        <mxPoint x="1260" y="265" as="targetPoint"/>
                    </mxGeometry>
                </mxCell>
                <mxCell id="151" style="rounded=1;orthogonalLoop=1;jettySize=auto;html=1;fontSize=14;fontColor=#000000;sketch=0;edgeStyle=orthogonalEdgeStyle;" edge="1" parent="1" source="149" target="139">
                    <mxGeometry relative="1" as="geometry">
                        <mxPoint x="1160" y="595" as="sourcePoint"/>
                        <mxPoint x="1000" y="280" as="targetPoint"/>
                    </mxGeometry>
                </mxCell>
                <mxCell id="152" value="&lt;i&gt;Global Planner&lt;/i&gt;" style="rounded=0;whiteSpace=wrap;html=1;fillColor=#60a917;strokeColor=#2D7600;fontSize=14;fontColor=#000000;" vertex="1" parent="1">
                    <mxGeometry x="750" y="10" width="140" height="40" as="geometry"/>
                </mxCell>
                <mxCell id="153" style="rounded=1;orthogonalLoop=1;jettySize=auto;html=1;fontSize=14;fontColor=#000000;sketch=0;edgeStyle=orthogonalEdgeStyle;" edge="1" parent="1" source="152" target="111">
                    <mxGeometry relative="1" as="geometry">
                        <mxPoint x="1110" y="185" as="sourcePoint"/>
                        <mxPoint x="1000" y="250" as="targetPoint"/>
                    </mxGeometry>
                </mxCell>
                <mxCell id="154" value="&lt;i&gt;Local Costmap&lt;/i&gt;" style="rounded=0;whiteSpace=wrap;html=1;fillColor=#60a917;strokeColor=#2D7600;fontSize=14;fontColor=#000000;" vertex="1" parent="1">
                    <mxGeometry x="920" y="230" width="140" height="40" as="geometry"/>
                </mxCell>
                <mxCell id="155" value="&lt;i&gt;Global Costmap&lt;/i&gt;" style="rounded=0;whiteSpace=wrap;html=1;fillColor=#60a917;strokeColor=#2D7600;fontSize=14;fontColor=#000000;" vertex="1" parent="1">
                    <mxGeometry x="920" y="10" width="140" height="40" as="geometry"/>
                </mxCell>
                <mxCell id="156" style="rounded=1;orthogonalLoop=1;jettySize=auto;html=1;fontSize=14;fontColor=#000000;sketch=0;edgeStyle=orthogonalEdgeStyle;" edge="1" parent="1" source="155" target="152">
                    <mxGeometry relative="1" as="geometry">
                        <mxPoint x="830" y="60" as="sourcePoint"/>
                        <mxPoint x="830" y="240" as="targetPoint"/>
                    </mxGeometry>
                </mxCell>
                <mxCell id="158" style="rounded=1;orthogonalLoop=1;jettySize=auto;html=1;fontSize=14;fontColor=#000000;sketch=0;edgeStyle=orthogonalEdgeStyle;" edge="1" parent="1" source="154" target="111">
                    <mxGeometry relative="1" as="geometry">
                        <mxPoint x="1000" y="60" as="sourcePoint"/>
                        <mxPoint x="1000" y="240" as="targetPoint"/>
                    </mxGeometry>
                </mxCell>
                <mxCell id="159" style="rounded=1;orthogonalLoop=1;jettySize=auto;html=1;fontSize=14;fontColor=#000000;sketch=0;edgeStyle=orthogonalEdgeStyle;" edge="1" parent="1" source="135" target="154">
                    <mxGeometry relative="1" as="geometry">
                        <mxPoint x="1530" y="32.5" as="sourcePoint"/>
                        <mxPoint x="1460" y="110" as="targetPoint"/>
                        <Array as="points">
                            <mxPoint x="1100" y="23"/>
                            <mxPoint x="1100" y="260"/>
                        </Array>
                    </mxGeometry>
                </mxCell>
                <mxCell id="160" style="rounded=1;orthogonalLoop=1;jettySize=auto;html=1;fontSize=14;fontColor=#000000;sketch=0;edgeStyle=orthogonalEdgeStyle;" edge="1" parent="1" source="131" target="154">
                    <mxGeometry relative="1" as="geometry">
                        <mxPoint x="1530" y="32.5" as="sourcePoint"/>
                        <mxPoint x="1070" y="260" as="targetPoint"/>
                        <Array as="points">
                            <mxPoint x="1090" y="-85"/>
                            <mxPoint x="1090" y="250"/>
                        </Array>
                    </mxGeometry>
                </mxCell>
                <mxCell id="161" value="rtabmap_ros" style="rounded=0;whiteSpace=wrap;html=1;fillColor=#60a917;strokeColor=#2D7600;fontSize=14;fontColor=#000000;" vertex="1" parent="1">
                    <mxGeometry x="1185" y="50" width="140" height="30" as="geometry"/>
                </mxCell>
                <mxCell id="162" value="/rtabmap/grid_map" style="rounded=1;whiteSpace=wrap;html=1;fontSize=14;fillColor=#cdeb8b;strokeColor=#36393d;fontColor=#000000;" vertex="1" parent="1">
                    <mxGeometry x="915" y="110" width="150" height="30" as="geometry"/>
                </mxCell>
                <mxCell id="163" value="/tigra/odometry/filtered" style="rounded=1;whiteSpace=wrap;html=1;fontSize=14;fillColor=#cdeb8b;strokeColor=#36393d;fontColor=#000000;" vertex="1" parent="1">
                    <mxGeometry x="1180" y="100" width="150" height="30" as="geometry"/>
                </mxCell>
                <mxCell id="165" style="rounded=1;orthogonalLoop=1;jettySize=auto;html=1;fontSize=14;fontColor=#000000;sketch=0;edgeStyle=orthogonalEdgeStyle;" edge="1" parent="1" source="139" target="163">
                    <mxGeometry relative="1" as="geometry">
                        <mxPoint x="1285" y="200" as="sourcePoint"/>
                        <mxPoint x="1285" y="250" as="targetPoint"/>
                    </mxGeometry>
                </mxCell>
                <mxCell id="167" style="rounded=1;orthogonalLoop=1;jettySize=auto;html=1;fontSize=14;fontColor=#000000;sketch=0;edgeStyle=orthogonalEdgeStyle;" edge="1" parent="1" source="163" target="161">
                    <mxGeometry relative="1" as="geometry">
                        <mxPoint x="1390" y="265.04761904761926" as="sourcePoint"/>
                        <mxPoint x="1265" y="140" as="targetPoint"/>
                    </mxGeometry>
                </mxCell>
                <mxCell id="168" style="rounded=1;orthogonalLoop=1;jettySize=auto;html=1;fontSize=14;fontColor=#000000;sketch=0;edgeStyle=orthogonalEdgeStyle;" edge="1" parent="1" source="161" target="162">
                    <mxGeometry relative="1" as="geometry">
                        <mxPoint x="1390" y="264.9999999999998" as="sourcePoint"/>
                        <mxPoint x="1300" y="160" as="targetPoint"/>
                        <Array as="points">
                            <mxPoint x="1140" y="65"/>
                            <mxPoint x="1140" y="125"/>
                        </Array>
                    </mxGeometry>
                </mxCell>
                <mxCell id="169" style="rounded=1;orthogonalLoop=1;jettySize=auto;html=1;fontSize=14;fontColor=#000000;sketch=0;edgeStyle=orthogonalEdgeStyle;" edge="1" parent="1" source="162" target="155">
                    <mxGeometry relative="1" as="geometry">
                        <mxPoint x="1265" y="60" as="sourcePoint"/>
                        <mxPoint x="1265" y="-10" as="targetPoint"/>
                    </mxGeometry>
                </mxCell>
                <mxCell id="170" style="rounded=1;orthogonalLoop=1;jettySize=auto;html=1;fontSize=14;fontColor=#000000;sketch=0;edgeStyle=orthogonalEdgeStyle;" edge="1" parent="1" source="162" target="154">
                    <mxGeometry relative="1" as="geometry">
                        <mxPoint x="1190" y="-25.000000000000227" as="sourcePoint"/>
                        <mxPoint x="1000" y="20" as="targetPoint"/>
                    </mxGeometry>
                </mxCell>
            </root>
        </mxGraphModel>
    </diagram>
</mxfile>